<svg xmlns="http://www.w3.org/2000/svg" width="262.296" height="43.693" viewBox="0 0 262.296 43.693">
  <g id="Booking.com_logo" transform="translate(-9.3 -118.7)">
    <path id="logo_2_" d="M120.217,122.691a3.991,3.991,0,1,1-3.991-3.991A3.994,3.994,0,0,1,120.217,122.691Zm-60.826,18.3c0,7.225-5.3,12.454-12.592,12.454s-12.523-5.229-12.523-12.454A12.092,12.092,0,0,1,46.8,128.539C54.094,128.539,59.392,133.769,59.392,140.994Zm-6.743,0c0-3.922-2.408-6.606-5.849-6.606s-5.849,2.752-5.849,6.606c0,3.922,2.408,6.606,5.849,6.606C50.309,147.6,52.649,144.916,52.649,140.994Zm51.881.619h0a4.959,4.959,0,0,0-.963-1.307l-.206-.206.206-.206a9.83,9.83,0,0,0,1.032-1.239l6.4-9.564h-7.775l-4.817,7.431a1.858,1.858,0,0,1-1.651.619h-1.1V123.035c0-2.821-1.789-3.234-3.647-3.234H88.773v33.3h6.881v-9.977h.619c.757,0,1.307.069,1.583.55l3.784,7.156c1.032,1.927,2.133,2.271,4.128,2.271h5.3l-3.922-6.537Zm33.44-13.142h0a9.437,9.437,0,0,0-7.018,2.89l-.413.413-.138-.55c-.344-1.445-1.583-2.2-3.509-2.2h-3.1v24.014h6.881V141.957a9.457,9.457,0,0,1,.413-2.89,5.605,5.605,0,0,1,5.573-4.2c2.133,0,2.959,1.1,2.959,4.06v10.459c0,2.477,1.17,3.647,3.647,3.647H146.5V137.76C146.571,131.7,143.612,128.471,137.97,128.471Zm-21.674.55h-3.234V147.6h0v5.436H119.8V132.668C119.873,130.191,118.7,129.021,116.3,129.021Zm-30,11.972c0,7.225-5.3,12.454-12.592,12.454s-12.523-5.229-12.523-12.454A12.092,12.092,0,0,1,73.7,128.539C81,128.539,86.3,133.769,86.3,140.994Zm-6.743,0c0-3.922-2.408-6.606-5.849-6.606s-5.849,2.752-5.849,6.606c0,3.922,2.408,6.606,5.849,6.606C77.213,147.6,79.552,144.916,79.552,140.994Zm92.89-12.041v22.018c0,8.395-6.812,11.422-12.661,11.422a18.463,18.463,0,0,1-8.394-2.064l-.482-.275.757-2,.55-1.376a2.061,2.061,0,0,1,2.89-1.376,13.49,13.49,0,0,0,4.61.826c3.784,0,5.849-1.789,5.849-4.954v-.688l-.55.413a8.492,8.492,0,0,1-5.3,1.514c-6.4,0-10.872-5.023-10.872-12.179s4.335-11.972,10.734-11.972a9.333,9.333,0,0,1,6.33,2.064l.344.275.206-.344a2.934,2.934,0,0,1,2.821-1.445h3.165ZM165.7,140.443c0-5.367-2.89-5.986-5.092-5.986-4.4,0-4.748,4.4-4.748,5.78,0,3.028,1.307,6.33,5.092,6.33C163.153,146.5,165.7,145.466,165.7,140.443ZM32.282,143.264c0,5.917-4.472,9.7-11.491,9.7H9.3V123.31a3.483,3.483,0,0,1,3.372-3.44h7.982c6.261,0,10.321,3.372,10.321,8.6a7.971,7.971,0,0,1-2.752,6.261l-.894.757,1.032.55h0A7.843,7.843,0,0,1,32.282,143.264ZM15.7,129.3h0v3.853h5.023a3.751,3.751,0,0,0,3.853-4.06,3.584,3.584,0,0,0-3.922-3.922H17.832c-1.445.069-2.064.826-2.064,2.339V129.3Zm10.046,13.486a4.19,4.19,0,0,0-4.472-4.472H17.488c-1.239.138-1.789.894-1.789,2.339v6.674h5.573A4.175,4.175,0,0,0,25.745,142.783Z" transform="translate(0 0)" fill="#b7adad"/>
    <path id="logo_1_" d="M258.282,153.749a3.991,3.991,0,1,1-3.991-3.991A3.994,3.994,0,0,1,258.282,153.749Zm50.023-8.326c0,7.225-5.3,12.454-12.592,12.454s-12.523-5.229-12.523-12.454a12.092,12.092,0,0,1,12.523-12.454C303.006,132.969,308.3,138.2,308.3,145.423Zm-6.743,0c0-3.922-2.408-6.605-5.849-6.605s-5.849,2.752-5.849,6.605c0,3.922,2.408,6.606,5.849,6.606C299.222,152.028,301.561,149.345,301.561,145.423Zm37.294-12.454Zm0,0a9.425,9.425,0,0,0-7.362,3.578l-.482.619-.413-.688c-1.238-2.339-3.44-3.509-6.468-3.509a8.957,8.957,0,0,0-6.33,2.821l-.619.688-.275-.895c-.344-1.307-1.514-2.064-3.372-2.064h-2.89v23.945h6.537v-10.6a13.727,13.727,0,0,1,.344-2.821c.619-2.546,2.339-5.3,5.229-5.023,1.789.138,2.615,1.514,2.615,4.2V157.4h6.606V146.8a11.885,11.885,0,0,1,.344-2.89c.55-2.408,2.339-4.954,5.092-4.954,2,0,2.752,1.17,2.752,4.2v10.665c0,2.408,1.1,3.509,3.509,3.509h3.1V142.051C346.837,136.065,344.153,132.969,338.855,132.969Zm-59.518,16.17h0s-2.821,2.959-6.537,2.959c-3.372,0-6.812-2.064-6.812-6.674,0-3.991,2.615-6.812,6.4-6.812,1.239,0,2.615.413,2.821,1.17v.138a2.483,2.483,0,0,0,2.339,1.789h3.578v-3.165c0-4.128-5.229-5.642-8.807-5.642-7.569,0-13.073,5.3-13.073,12.523s5.436,12.523,12.936,12.523a13.379,13.379,0,0,0,10.046-4.335l.206-.206-2.821-4.679Z" transform="translate(-75.174 -4.429)" fill="#b7adad"/>
  </g>
</svg>
