<svg xmlns="http://www.w3.org/2000/svg" width="97" height="58.831" viewBox="0 0 97 58.831">
  <g id="Cartoon_Network_logo" transform="translate(-61.795 -68.999)">
    <path id="Path_338" data-name="Path 338" d="M61.795,118.136h49.15V69H61.795ZM87.706,71.61a21.748,21.748,0,0,1,19.109,11.1h0L94.608,89.7a7.85,7.85,0,0,0-6.708-3.99,7.891,7.891,0,1,0-.22,15.781,8.052,8.052,0,0,0,6.93-4.019l12.206,7A21.96,21.96,0,1,1,87.706,71.61Z" fill="#b7adad"/>
    <path id="Path_339" data-name="Path 339" d="M226.261,103.632l14.051,17.536h14.025V79.056H240.312V96.621L226.261,79.056H212.225l0,42.113h14.04Z" transform="translate(-97.75 -6.535)" fill="#b7adad"/>
    <path id="Path_340" data-name="Path 340" d="M69.426,221.026a1.33,1.33,0,0,1,1.244.6l1.616-.925a3.243,3.243,0,0,0-1.841-1.434h0a3.129,3.129,0,1,0-.667,6.128,3.286,3.286,0,0,0,2.508-1.567l-1.616-.934a1.327,1.327,0,0,1-1.152.61,1.26,1.26,0,0,1-1.144-1.581A1.244,1.244,0,0,1,69.426,221.026Z" transform="translate(-3.029 -97.567)" fill="#b7adad"/>
    <path id="Path_341" data-name="Path 341" d="M146.362,221.151a3.042,3.042,0,1,0,.007.014A.083.083,0,0,0,146.362,221.151Zm-1.861,2.633a1.33,1.33,0,0,1-1.335-2.3,1.317,1.317,0,0,1,.665-.181,1.337,1.337,0,0,1,1.154.664l.005.008A1.332,1.332,0,0,1,144.5,223.784Z" transform="translate(-51.405 -97.929)" fill="#b7adad"/>
    <path id="Path_342" data-name="Path 342" d="M289.75,221.158a2.828,2.828,0,1,0,0,.008Zm-1.245,1.82a1.33,1.33,0,1,1-.135-1.01l0,.006A1.319,1.319,0,0,1,288.5,222.978Z" transform="translate(-144.58 -97.932)" fill="#b7adad"/>
    <path id="Path_343" data-name="Path 343" d="M85.341,219.5l-1.877,6h2.109l.308-1.006H87.8l.3,1.006h2.109l-1.877-6Zm.962,3.518.537-1.862.536,1.862Z" transform="translate(-14.081 -97.8)" fill="#b7adad"/>
    <path id="Path_344" data-name="Path 344" d="M110.212,221.542a2.131,2.131,0,0,0-2.028-2.039H104.47v6h1.988V223.75h.648L108,225.5h2.211l-1.158-1.968A2.182,2.182,0,0,0,110.212,221.542Zm-2.434.715-1.321,0v-1.007h1.322a.5.5,0,0,1,.454.466A.511.511,0,0,1,107.778,222.257Z" transform="translate(-27.731 -97.8)" fill="#b7adad"/>
    <path id="Path_345" data-name="Path 345" d="M122.435,221.254h1.883V225.5h2.249v-4.248h1.881V219.5h-6.013Z" transform="translate(-39.405 -97.8)" fill="#b7adad"/>
    <path id="Path_346" data-name="Path 346" d="M183.324,222l-2.032-2.5h-1.983v6h1.983V223l2.032,2.5h1.985v-6h-1.985Z" transform="translate(-76.362 -97.8)" fill="#b7adad"/>
    <path id="Path_347" data-name="Path 347" d="M212.049,222l-2.032-2.5h-1.983v6h1.983V223l2.032,2.5h1.985v-6h-1.985Z" transform="translate(-95.029 -97.8)" fill="#b7adad"/>
    <path id="Path_348" data-name="Path 348" d="M227.631,225.5h5.24v-1.6h-3.255v-.631h2.741v-1.4h-2.741v-.614h3.255V219.5h-5.24Z" transform="translate(-107.763 -97.8)" fill="#b7adad"/>
    <path id="Path_349" data-name="Path 349" d="M244.489,221.254h1.883V225.5h2.248v-4.248H250.5V219.5h-6.013Z" transform="translate(-118.718 -97.8)" fill="#b7adad"/>
    <path id="Path_350" data-name="Path 350" d="M267.621,222.127l-1.012-2.411-.994,2.417c0-.011-.506-2.632-.506-2.632h-2.017c.022.136,1.162,6,1.162,6h1.635l.721-1.62.711,1.62h1.663l1.143-6h-2Z" transform="translate(-130.806 -97.799)" fill="#b7adad"/>
    <path id="Path_351" data-name="Path 351" d="M308.993,221.542a2.131,2.131,0,0,0-2.028-2.039h-3.714v6h1.987l0-1.754h.644l.891,1.754h2.211l-1.159-1.968A2.183,2.183,0,0,0,308.993,221.542Zm-2.434.715-1.321,0v-1.007h1.323a.5.5,0,0,1,.454.466A.512.512,0,0,1,306.558,222.257Z" transform="translate(-156.903 -97.8)" fill="#b7adad"/>
    <path id="Path_352" data-name="Path 352" d="M327.543,219.5h-2.559l-1.5,1.944V219.5H321.48v6h2.008V223.27l1.5,2.233h2.559l-2.322-3.14Z" transform="translate(-168.748 -97.8)" fill="#b7adad"/>
    <path id="Path_353" data-name="Path 353" d="M165.736,221.153a2.956,2.956,0,1,0,.007.012Zm-1.861,2.633a1.33,1.33,0,1,1-1.334-2.3,1.314,1.314,0,0,1,.665-.181,1.337,1.337,0,0,1,1.153.664l.005.008A1.334,1.334,0,0,1,163.875,223.786Z" transform="translate(-63.995 -97.932)" fill="#b7adad"/>
  </g>
</svg>
