<svg xmlns="http://www.w3.org/2000/svg" width="229.235" height="45.146" viewBox="0 0 229.235 45.146">
  <g id="Dropbox_logo" transform="translate(-7.5 -110)">
    <path id="Path_354" data-name="Path 354" d="M34.112,118.495l-13.306,8.495,13.306,8.495-13.306,8.495L7.5,135.424l13.306-8.495L7.5,118.495,20.806,110ZM20.747,146.652l13.306-8.495,13.306,8.495-13.306,8.495Zm13.366-11.227,13.306-8.495-13.306-8.435L47.359,110l13.306,8.495-13.306,8.495,13.306,8.495-13.306,8.495Z" fill="#b7adad"/>
    <path id="Path_355" data-name="Path 355" d="M114.5,122.757h10.752c6.891,0,12.534,3.98,12.534,13.009v1.9c0,9.148-5.287,13.247-12.3,13.247H114.5Zm6,5.109v17.88h4.574c3.921,0,6.534-2.554,6.534-8.2v-1.485c0-5.643-2.733-8.2-6.713-8.2Zm20.435.238h4.812l.772,5.287c.891-3.624,3.267-5.524,7.485-5.524h1.485v6.059h-2.495c-4.871,0-6.059,1.723-6.059,6.534v10.455h-5.94v-22.87h-.059Zm15.8,11.94v-.653c0-7.663,4.871-11.821,11.524-11.821,6.772,0,11.524,4.158,11.524,11.821v.653c0,7.485-4.574,11.524-11.524,11.524C160.894,151.508,156.735,147.528,156.735,140.043Zm16.989-.119v-.594c0-4.218-2.139-6.772-5.524-6.772-3.327,0-5.524,2.317-5.524,6.772v.594c0,4.1,2.138,6.415,5.524,6.415S173.725,144.083,173.725,139.925Zm9.207-11.821h4.93l.594,4.336a7.642,7.642,0,0,1,7.485-4.871c5.821,0,9.623,4.158,9.623,11.881v.653c0,7.485-4.218,11.465-9.623,11.465-3.624,0-6.059-1.6-7.307-4.218v11.524h-5.821l.119-30.771Zm16.633,11.821v-.475c0-4.515-2.317-6.772-5.465-6.772-3.327,0-5.524,2.554-5.524,6.772v.416c0,4.039,2.138,6.594,5.465,6.594C197.426,146.4,199.565,144.2,199.565,139.925Zm14.791,6.831-.475,4.158h-5.109V120.5h5.821v11.7c1.247-2.97,3.8-4.574,7.425-4.574,5.465.059,9.5,3.8,9.5,11.405v.713c0,7.544-3.8,11.881-9.623,11.881C218.039,151.508,215.544,149.726,214.356,146.756Zm11.049-7.069v-.594c0-4.158-2.257-6.534-5.465-6.534-3.267,0-5.524,2.614-5.524,6.594v.475c0,4.218,2.2,6.713,5.465,6.713C223.326,146.4,225.405,144.2,225.405,139.687Zm8.613.356v-.653c0-7.663,4.871-11.821,11.524-11.821,6.772,0,11.524,4.158,11.524,11.821v.653c0,7.485-4.693,11.524-11.524,11.524C238.177,151.508,234.018,147.528,234.018,140.043Zm17.049-.119v-.594c0-4.218-2.139-6.772-5.524-6.772-3.327,0-5.524,2.317-5.524,6.772v.594c0,4.1,2.138,6.415,5.524,6.415S251.067,144.083,251.067,139.925Zm13.781-.832-8.019-10.99h6.891l4.574,6.891,4.693-6.891h6.772l-8.138,10.871,8.554,11.881h-6.712l-5.227-7.544-5.109,7.544h-6.95Z" transform="translate(-43.439 -4.263)" fill="#b7adad"/>
  </g>
</svg>
