<svg xmlns="http://www.w3.org/2000/svg" width="142.072" height="38.544" viewBox="0 0 142.072 38.544">
  <g id="netflix-2" transform="translate(0 0.003)">
    <path id="Path_359" data-name="Path 359" d="M121.279,36.091q2.968.288,5.929.611l4.356-10.756,4.141,11.748q3.187.4,6.365.837l-7.259-20.6L142.072,0h-6.15l-.064.088-3.923,9.687L128.492,0H122.42l6.269,17.79-7.409,18.3Zm-4.592-.421V0h-6.07v35.17q3.037.234,6.07.5m-45.6-1.994c1.639,0,3.275.012,4.909.026V20.6h7.292V15.015H76V5.586h8.4V0H69.907V33.679c.394,0,.789-.006,1.184,0m-18.846.341q3.033-.108,6.073-.182V5.587h5.673V0H46.571V5.587h5.674V34.016ZM5.823,37.777V16.525L13.01,36.919q3.315-.372,6.643-.7V0H13.829V22.012L6.074,0H0V38.541H.036q2.886-.4,5.786-.764m34.9-32.192V0H26.225V35.613q7.233-.624,14.481-1.047V28.974q-4.2.244-8.387.559V20.6h7.292V15.014H32.32V5.585ZM96.428,28.707V0h-6.1V34.036q7.274.267,14.494.739V29.18q-4.191-.271-8.4-.474" fill="#b7adad"/>
  </g>
</svg>
