<svg id="redbull" xmlns="http://www.w3.org/2000/svg" width="122.072" height="74.244" viewBox="0 0 122.072 74.244">
  <path id="Path_369" data-name="Path 369" d="M80.033,38.694l.324.059Zm.882.147c.126.019.251.035.377.052Zm.933.112.368.031Zm.5.04c.1.008.207.014.311.019Zm.462.027.368.014Zm.49.016q.411.011.823,0Zm.954,0q.192-.006.383-.015Zm.5-.021.33-.021Zm.445-.029c.12-.009.24-.019.359-.03Zm.974-.1c.092-.011.184-.023.275-.037ZM103.023,7.9q-.149-.08-.305-.146Zm-1-.36q-.192-.039-.386-.059ZM126,26.266l-.07.01ZM36.489,20.825a3.692,3.692,0,0,1-.984-1.487,5.271,5.271,0,0,1-.376-1.572,5.424,5.424,0,0,1,2.763-4.739,3.174,3.174,0,0,0,.988-.723.468.468,0,0,0-.15-.038A4.039,4.039,0,0,1,35.3,10.872a3.576,3.576,0,0,1-.7-2.213,5.1,5.1,0,0,1,.172-1.278c.547-.9,1.067-.656,1.386-.193A5.688,5.688,0,0,0,39.467,8.62a3,3,0,0,1,2.268,1.215,3.174,3.174,0,0,1,.558,1.822,2.645,2.645,0,0,1-.078.656c-.188.762-.99,1.449-2.108,2.324l-.634.526a3.61,3.61,0,0,0-1.439,2.483,1.567,1.567,0,0,0,.1.55,1.332,1.332,0,0,0,.1.2c.415.7,1.587,1.143,3.288.548a10.857,10.857,0,0,0,3.223-2.141,5.938,5.938,0,0,1,3.936-1.456,3.4,3.4,0,0,0,2.483-.979,5.847,5.847,0,0,1,4.445-2.1c.535-.041.564-.079.634-.174a5.731,5.731,0,0,1,2.273-1.886,7.133,7.133,0,0,1,1.441-.439l.492-.121.123-.043A9.77,9.77,0,0,0,63.533,8.08l.068-.043h0l.066-.042h0l.067-.039h0l.067-.038h0l.067-.035h0l.066-.035h0l.067-.032h0l.067-.031h0l.068-.028h0l.067-.028h0l.068-.025,0,0,.067-.024.071-.024h0l.066-.021h0l.068-.019h0l.067-.018h.005l.067-.016h.006l.066-.015h.005l.068-.014h.006l.067-.012h.006l.067-.011h.006l.066-.01h.007l.066-.008h.007l.065-.007h.007l.066-.006h.008l.066,0h.008l.065,0h.008l.065,0,.073,0h.233c.046,0,.092,0,.139.006l.064,0h.009l.062,0h.009l.062.006h.01l.062.006h.01l.062.008h.01l.061.008.01,0,.061.009.01,0,.061.009.011,0,.06.01.011,0,.059.011.011,0c.095.018.188.039.279.061l.057.014.012,0q.138.036.273.076l.053.017.013,0c.178.056.35.119.517.186l.047.019.061.025A19.49,19.49,0,0,1,82.817.022h0q.449-.02.9-.021.3,0,.595.009l.3.011h0L84.9.036A19.5,19.5,0,0,1,99.318,7.79a5.913,5.913,0,0,1,1.527-.322h.014l.05,0,.052,0h.351l.053,0h.012l.053,0h.012l.053,0h.01l.054,0h.01l.054.005h.01a3.9,3.9,0,0,1,.386.059l.057.012.008,0,.056.013h.008l.056.014.008,0,.057.015.006,0,.059.016.005,0,.057.018.007,0,.058.019h.005l.063.022.059.021,0,0,.058.023h0l.06.024,0,0c.1.043.2.091.305.146h0l.06.032h0l.06.034h0L103.2,8h0l.059.037h0l.06.038a11.546,11.546,0,0,0,2.26,1.282c.242.1.467.169.7.247l.125.043.5.121a9.143,9.143,0,0,1,.91.237,5.527,5.527,0,0,1,2.8,2.089c.07.094.1.133.639.174a5.864,5.864,0,0,1,4.448,2.1,3.374,3.374,0,0,0,2.475.979,5.921,5.921,0,0,1,3.937,1.456,10.848,10.848,0,0,0,3.225,2.141c1.7.6,2.878.155,3.283-.548a1.41,1.41,0,0,0,.179-.483,1.569,1.569,0,0,0,.024-.271,3.616,3.616,0,0,0-1.437-2.483l-.115-.1-.525-.43c-1.114-.875-1.917-1.562-2.11-2.324a2.652,2.652,0,0,1-.073-.656,3.228,3.228,0,0,1,.553-1.822,3.027,3.027,0,0,1,2.27-1.215A5.656,5.656,0,0,0,130.7,7.189c.324-.463.839-.711,1.384.193a5.026,5.026,0,0,1,.173,1.278,3.569,3.569,0,0,1-.7,2.213,4.046,4.046,0,0,1-3.43,1.393.458.458,0,0,0-.147.038,3.1,3.1,0,0,0,.987.723,5.43,5.43,0,0,1,2.766,4.739,5.119,5.119,0,0,1-.379,1.572,3.742,3.742,0,0,1-.823,1.336c-.049.051-.1.1-.156.151a5.638,5.638,0,0,1-4.373,1.2q-.352-.022-.7-.064a7.385,7.385,0,0,1-.8,3.138.856.856,0,0,0-.158.424c0,.029,0,.046,0,.058s.99.581.99.581l.157.08s.092.043.1.053.337-.019.337-.019l.064-.009H126c.61-.058,1.542-.357,1.938.75.1.294.167.549.226.776a1.77,1.77,0,0,0,.63,1.119s.2-.172.428-.374q.264-.233.517-.477c.282-.289.8-.142,1.181,0a9.779,9.779,0,0,1,1.186.663,1.252,1.252,0,0,1,.617.712,1.273,1.273,0,0,0,.689.66,1.993,1.993,0,0,1,.835,1.663,1.155,1.155,0,0,0,.051.357,1.713,1.713,0,0,0,.105.251c.48.967.095,1.453-.183,1.658a2.309,2.309,0,0,1-1.651.294l.005.159-.9-.121a3.71,3.71,0,0,0-1.088.1l-.065.017a1.872,1.872,0,0,1-1.957-.858c-.017-.029-.035-.057-.051-.087a3.015,3.015,0,0,0-.8-.925,3.178,3.178,0,0,1-1.184.121,2.827,2.827,0,0,1-1.54-.674c-.09-.075-.181-.157-.27-.247a3.024,3.024,0,0,0-2.513-.863l-.395.07a3.772,3.772,0,0,1-2.772-.238,7.5,7.5,0,0,0-.9-.429c-.853-.372-1.735-.755-1.856-1.562a2.3,2.3,0,0,0-.3-.617,5.149,5.149,0,0,1-.33-.6,1.753,1.753,0,0,1-.163-.658,2.879,2.879,0,0,1-.856.087q-.153-.008-.3-.03l-.37-.057a7.612,7.612,0,0,0-2.348-.169,12.8,12.8,0,0,1-4.153.28l-.511-.11a6.264,6.264,0,0,1-.784.682,9.247,9.247,0,0,1,1.3.045l.657.173a3.787,3.787,0,0,1,1.014-.029l.77.058.878.084c.423.085.872.268.8,1.1a1.532,1.532,0,0,1-.388.829,8.292,8.292,0,0,0-.678,1l-.033.065a1.156,1.156,0,0,1-1.215.731,2.781,2.781,0,0,0-.294.012c-.023.062-.087.178-.087.178a2.788,2.788,0,0,1-.9,1.263l-.128.092a1.993,1.993,0,0,1-2.008.371l-.338-.121a25.161,25.161,0,0,1-2.8-1.128l-.092-.051c-.608-.333-.743-.4-.964-.369l-.123.019a1.733,1.733,0,0,1-1.954-.825L99.5,31a19.527,19.527,0,0,1-12.219,7.715l-.022,0c-.17.031-.342.06-.514.087l-.064.009-.235.035c-.091.014-.183.026-.276.038l-.168.021-.264.029-.183.019c-.119.011-.239.021-.359.03l-.114.008c-.11.008-.219.015-.33.021l-.121.006c-.128.006-.255.011-.383.015l-.13,0q-.411.01-.823,0h-.123l-.368-.014-.15-.008c-.1-.006-.207-.011-.311-.019l-.132-.009-.368-.031-.181-.019-.24-.026-.134-.016q-.189-.023-.377-.052l-.152-.022-.269-.042-.138-.023c-.108-.019-.216-.038-.324-.059l-.233-.047-.119-.024c-.159-.035-.32-.069-.478-.107l-.042-.01-.249-.061-.128-.033c-.148-.038-.3-.079-.443-.121l-.053-.016a19.542,19.542,0,0,1-10.66-7.7l-.333.506a1.727,1.727,0,0,1-1.953.825l-.123-.019c-.22-.031-.36.036-.962.369l-.1.051a24.587,24.587,0,0,1-2.8,1.128l-.339.121a1.98,1.98,0,0,1-2-.371l-.133-.092a2.8,2.8,0,0,1-.9-1.263s-.058-.116-.086-.178a2.806,2.806,0,0,0-.294-.012,1.157,1.157,0,0,1-1.213-.731l-.031-.065a7.865,7.865,0,0,0-.682-1,1.511,1.511,0,0,1-.386-.829.872.872,0,0,1,.8-1.1l.879-.084.771-.058a3.758,3.758,0,0,1,1.01.029l.658-.173a9.208,9.208,0,0,1,1.3-.045,7.466,7.466,0,0,1-.781-.682c-.251.053-.512.11-.512.11a12.744,12.744,0,0,1-4.146-.28,7.629,7.629,0,0,0-2.352.169l-.376.057A2.871,2.871,0,0,1,51.38,26.9a2.762,2.762,0,0,1-.495,1.263,2.335,2.335,0,0,0-.308.617c-.113.808-1.006,1.191-1.856,1.562a7.592,7.592,0,0,0-.9.429,3.77,3.77,0,0,1-2.772.238l-.4-.07a3.026,3.026,0,0,0-2.512.863,2.856,2.856,0,0,1-2.994.8,3,3,0,0,0-.8.925,1.876,1.876,0,0,1-2.01.945l-.067-.017a3.637,3.637,0,0,0-1.078-.1l-.909.121.01-.159a2.328,2.328,0,0,1-1.658-.294c-.276-.205-.662-.692-.174-1.658a1.255,1.255,0,0,0,.152-.608,1.993,1.993,0,0,1,.83-1.663,1.25,1.25,0,0,0,.691-.66,1.24,1.24,0,0,1,.615-.712,9.832,9.832,0,0,1,1.184-.663c.378-.142.9-.289,1.185,0s.945.851.945.851c.6-.466.546-1,.858-1.895.391-1.106,1.327-.808,1.934-.75l.07.01s.328.014.337.019.109-.053.109-.053l.152-.08s.981-.576.99-.581a.2.2,0,0,0,0-.058.843.843,0,0,0-.156-.424,7.333,7.333,0,0,1-.8-3.138c-.157.019-.309.034-.459.046-2.375.191-3.787-.41-4.612-1.184Z" transform="translate(-20.591)" fill="#f8ee3f"/>
  <g id="Group_215" data-name="Group 215" transform="translate(12.393 7.625)">
    <path id="Path_370" data-name="Path 370" d="M43.675,34.632a7.247,7.247,0,0,0,.665,3.6s.639.906-.025,1.488l-1.322.768a1.259,1.259,0,0,1-.767.087s-.815-.2-1.087.158A10.758,10.758,0,0,1,40.606,42a3.989,3.989,0,0,1-1.6,1.826,1.529,1.529,0,0,0-1.035.871,1,1,0,0,1-.769.5s-.382.121-.636.973a4.572,4.572,0,0,0-.131.973,2.816,2.816,0,0,1,1.077.068,1.282,1.282,0,0,0,1.512-.51s.9-1.546,1.572-1.313a2.339,2.339,0,0,0,2.294-.532,3.807,3.807,0,0,1,3.147-1.132s2.076.42,2.723-.058c0,0,1.309-.684,1.8-.854a.98.98,0,0,0,.663-.834,6.372,6.372,0,0,1,.631-1.234l-.99-.011a4.813,4.813,0,0,1-2.42,1.962,5.139,5.139,0,0,1-2.505.062,4.988,4.988,0,0,0-4.51,1.734.621.621,0,0,1-.7.25,5.732,5.732,0,0,1,3.723-2.458,4.923,4.923,0,0,1,1.536-.065,5.67,5.67,0,0,0,5.044-3.291s-.173-2.892.59-3.577c0,0,.295-.09.236.469,0,0-.524,3.03.46,3.617a2.183,2.183,0,0,0,1.629.283,8.6,8.6,0,0,1,2.906-.16,12.254,12.254,0,0,0,3.726.256,2.548,2.548,0,0,1-.359-1.5s.247-.586.529-.209a4.713,4.713,0,0,0,2.473,2.846,2.686,2.686,0,0,1,1.591,2.64,8.283,8.283,0,0,1-2.392,1.043s-.8.253-1.059-.346c0,0-1.034-2.213-1.934-2.145l-1.69.137s-.577.148-.152.61a11.889,11.889,0,0,1,.815,1.229s.069.392.613.309c0,0,.754-.374,1.18,1.029a2.206,2.206,0,0,0,1.048.926,1.614,1.614,0,0,0,1.195-.119,28.71,28.71,0,0,0,3.278-1.388A1.587,1.587,0,0,1,66.8,44.7a1.087,1.087,0,0,0,1.182-.461l.865-1.339a1.455,1.455,0,0,0,.164-.744,1.073,1.073,0,0,0-.268-.827,1.735,1.735,0,0,1-.378-.6l-.617-1.449a2,2,0,0,0-.524-.546l-.823.06a13.7,13.7,0,0,0,.981,2.038,3.248,3.248,0,0,1,.533,1.4,1.153,1.153,0,0,1-.188.542s-.19.3-.266.452a2.087,2.087,0,0,1-.452.662,2.559,2.559,0,0,1-.435.216s-.152.042-.039-.231a4.4,4.4,0,0,0,.431-1.49.986.986,0,0,0-.293-.858A15.394,15.394,0,0,1,65.648,39.7a2.815,2.815,0,0,0-.431-.663.368.368,0,0,1,.192-.6,9.363,9.363,0,0,0,1.486-.439s.606-.183,1-1.445a8.934,8.934,0,0,0,.534-2.38A3.9,3.9,0,0,1,67.8,38.3s1.341.4,1.9,0c0,0,1.67-.244,1.992-.333,0,0,.42-.1.18.2a3.4,3.4,0,0,0-.546,1.186.887.887,0,0,1-.339.593s-.949.665-1.033,1.3c0,0-.2.613.216.466,0,0,.568-.263.769,0,0,0,.059.028-.16.274a1.918,1.918,0,0,0-.613,1.162,2.98,2.98,0,0,0,.307,1.015.645.645,0,0,0,.663.243.336.336,0,0,1,.3-.029,2.7,2.7,0,0,0,.725-.182s.795-.218,1.061-.312a5.7,5.7,0,0,1,1.511-.337,2.675,2.675,0,0,1,.738.047,2.661,2.661,0,0,0,2.108-.788s.642-.509.859-.015a4.175,4.175,0,0,0,4.031,1.521s-1.982-.815-2.5-1.926a4.62,4.62,0,0,0-1.107-2.252s-.317-.434-.011-.547c0,0,.177-.133.564.256a6.775,6.775,0,0,1,1.343,1.813s1.225,1.851,2.991,1.229a4.855,4.855,0,0,1-2.038-1.532,5.054,5.054,0,0,0-1.756-2.354,5.064,5.064,0,0,0-.684-2.369s-.322-1.424-.408-1.757a11.765,11.765,0,0,1-.338-1.6,4.523,4.523,0,0,0-.941-2.906,8.872,8.872,0,0,0-1.805-2.309s-.836-1.032-1.457-1.665a14.973,14.973,0,0,0-2.6-2.209,11.528,11.528,0,0,1-1.4-1.218s-3.144-2.263-5.415-.448a11.285,11.285,0,0,1-2.879,1.4s-2.692.313-3.84,2.182c0,0-.1.345-1.183.477a4.776,4.776,0,0,0-4.138,2.056,4.387,4.387,0,0,1-2.429.989,5.4,5.4,0,0,0-4.346,1.749s-4.324,3.772-6.9,1.326c0,0-1.336-1.265.191-3.555A16.224,16.224,0,0,1,42,26.746a2.054,2.054,0,0,0,.726-2.413,2.2,2.2,0,0,0-2.334-1.457s-2.521-.487-3.541-1.76c0,0-1.138,4.01,3.33,3.943,0,0,1.164.172.758,1.1A3.447,3.447,0,0,1,39.6,27.234a4.068,4.068,0,0,0-1.957,2.552s-1.361,3.436,1.96,4.762a8.357,8.357,0,0,0,4.07.083Zm-6.394,8.1a.813.813,0,0,1,.678-.181c.529.114.209.572.209.572a6.565,6.565,0,0,1-.913,1.076.813.813,0,0,1-1.114-.089c-.46-.454.139-.673.139-.673A5.6,5.6,0,0,0,37.28,42.729Zm-1.332,2.148a.36.36,0,0,1,.09.424,8.239,8.239,0,0,0-.47,1.8s-1.092.195-1.243-.344a.863.863,0,0,1,.149-.509,1.863,1.863,0,0,0,.233-.8s-.016-1.295.823-.952A1.531,1.531,0,0,1,35.948,44.876Zm38.473-2.74c-.192,0-.241-.075-.218-.287a1.325,1.325,0,0,1,.6-.842c.885-.529.992,0,.992,0,.162.944-.584,1.063-.584,1.063A5.292,5.292,0,0,1,74.421,42.136ZM77.09,37.92c.016-.443.054-1.428-.4-1.779-.166-.132-.823-.852-.823-.852-.1-.174-.177-.185-.177-.185-.135-.013-.31.3-.31.3-.468.9-.935.793-.935.793a.777.777,0,0,1,.106-.348q.339-.658.671-1.319c.068-.157.131-.365.131-.365.452-.7.877-.167.877-.167a17.425,17.425,0,0,0,1.2,1.579,1.075,1.075,0,0,1,.246.554c.235,1.655-.593,1.789-.593,1.789Zm-9.329-9.99a.723.723,0,0,1,.058-.745c.313-.48.606.044.606.044,1.082,1.509.283,3.767.283,3.767a5.41,5.41,0,0,0-.947-3.066Zm58.1,6.7a7.247,7.247,0,0,1-.665,3.6s-.639.906.025,1.488l1.322.768a1.258,1.258,0,0,0,.767.087s.815-.2,1.086.158A10.83,10.83,0,0,0,128.933,42a3.994,3.994,0,0,0,1.6,1.826,1.526,1.526,0,0,1,1.034.871,1,1,0,0,0,.769.5s.383.121.636.973a4.578,4.578,0,0,1,.131.973,2.819,2.819,0,0,0-1.078.068,1.282,1.282,0,0,1-1.512-.51s-.9-1.546-1.572-1.313a2.339,2.339,0,0,1-2.294-.532A3.806,3.806,0,0,0,123.5,43.73s-2.075.42-2.723-.058c0,0-1.309-.684-1.8-.854a.979.979,0,0,1-.663-.834,6.38,6.38,0,0,0-.632-1.234l.99-.011a4.812,4.812,0,0,0,2.42,1.962,5.141,5.141,0,0,0,2.505.062,4.988,4.988,0,0,1,4.51,1.734.621.621,0,0,0,.7.25,5.729,5.729,0,0,0-3.723-2.458,4.924,4.924,0,0,0-1.536-.065,5.671,5.671,0,0,1-5.044-3.291s.174-2.892-.589-3.577c0,0-.294-.09-.236.469,0,0,.524,3.03-.46,3.617a2.185,2.185,0,0,1-1.63.283,8.6,8.6,0,0,0-2.906-.16,12.26,12.26,0,0,1-3.727.256,2.547,2.547,0,0,0,.36-1.5s-.247-.586-.53-.209a4.713,4.713,0,0,1-2.474,2.846,2.686,2.686,0,0,0-1.591,2.64,8.3,8.3,0,0,0,2.393,1.043s.8.253,1.06-.346c0,0,1.033-2.213,1.934-2.145l1.691.137s.576.148.151.61a12.014,12.014,0,0,0-.815,1.229s-.068.392-.612.309c0,0-.754-.374-1.18,1.029a2.2,2.2,0,0,1-1.048.926,1.614,1.614,0,0,1-1.195-.119,28.682,28.682,0,0,1-3.277-1.388,1.588,1.588,0,0,0-1.083-.175,1.086,1.086,0,0,1-1.181-.461l-.865-1.339a1.449,1.449,0,0,1-.164-.744,1.071,1.071,0,0,1,.268-.827,1.729,1.729,0,0,0,.378-.6l.617-1.449a2,2,0,0,1,.524-.546l.824.06a13.7,13.7,0,0,1-.982,2.038,3.248,3.248,0,0,0-.533,1.4,1.157,1.157,0,0,0,.188.542s.19.3.267.452a2.072,2.072,0,0,0,.452.662,2.545,2.545,0,0,0,.435.216s.153.042.038-.231a4.429,4.429,0,0,1-.431-1.49.989.989,0,0,1,.293-.858,15.466,15.466,0,0,0,1.027-1.839,2.8,2.8,0,0,1,.43-.663.368.368,0,0,0-.192-.6,9.36,9.36,0,0,1-1.485-.439s-.606-.183-1-1.445a8.949,8.949,0,0,1-.534-2.38,3.894,3.894,0,0,0,.632,4.131s-1.341.4-1.9,0c0,0-1.67-.244-1.993-.333,0,0-.419-.1-.18.2a3.414,3.414,0,0,1,.547,1.186.883.883,0,0,0,.339.593s.949.665,1.032,1.3c0,0,.2.613-.216.466,0,0-.568-.263-.769,0,0,0-.059.028.16.274a1.916,1.916,0,0,1,.612,1.162,2.975,2.975,0,0,1-.307,1.015.644.644,0,0,1-.662.243.337.337,0,0,0-.3-.029,2.7,2.7,0,0,1-.725-.182s-.795-.218-1.06-.312a5.7,5.7,0,0,0-1.511-.337,2.675,2.675,0,0,0-.738.047,2.661,2.661,0,0,1-2.109-.788s-.642-.509-.859-.015a4.177,4.177,0,0,1-4.031,1.521s1.983-.815,2.5-1.926a4.613,4.613,0,0,1,1.106-2.252s.317-.434.011-.547c0,0-.177-.133-.564.256a6.787,6.787,0,0,0-1.342,1.813s-1.226,1.851-2.991,1.229a4.855,4.855,0,0,0,2.037-1.532,5.052,5.052,0,0,1,1.757-2.354,5.059,5.059,0,0,1,.684-2.369s.322-1.424.408-1.757a11.775,11.775,0,0,0,.338-1.6,4.522,4.522,0,0,1,.941-2.906,8.856,8.856,0,0,1,1.806-2.309s.835-1.032,1.456-1.665a14.986,14.986,0,0,1,2.6-2.209,11.519,11.519,0,0,0,1.4-1.218s3.144-2.263,5.416-.448a11.281,11.281,0,0,0,2.879,1.4s2.692.313,3.839,2.182c0,0,.1.345,1.183.477a4.777,4.777,0,0,1,4.139,2.056,4.387,4.387,0,0,0,2.43.989,5.4,5.4,0,0,1,4.345,1.749s4.325,3.772,6.9,1.326c0,0,1.335-1.265-.192-3.555a16.217,16.217,0,0,0-2.621-2.391,2.053,2.053,0,0,1-.726-2.413,2.2,2.2,0,0,1,2.334-1.457s2.521-.487,3.541-1.76c0,0,1.139,4.01-3.33,3.943,0,0-1.165.172-.758,1.1a3.447,3.447,0,0,0,1.337,1.079,4.069,4.069,0,0,1,1.957,2.552s1.362,3.436-1.961,4.762a8.347,8.347,0,0,1-4.068.083Zm6.395,8.1a.813.813,0,0,0-.678-.181c-.529.114-.209.572-.209.572a6.579,6.579,0,0,0,.913,1.076.812.812,0,0,0,1.114-.089c.46-.454-.14-.673-.14-.673A5.613,5.613,0,0,1,132.259,42.729Zm1.332,2.148a.362.362,0,0,0-.09.424,8.256,8.256,0,0,1,.47,1.8s1.092.195,1.242-.344a.864.864,0,0,0-.148-.509,1.863,1.863,0,0,1-.233-.8s.017-1.295-.822-.952A1.534,1.534,0,0,0,133.591,44.876Zm-38.473-2.74c.192,0,.242-.075.218-.287a1.326,1.326,0,0,0-.6-.842c-.885-.529-.993,0-.993,0-.161.944.585,1.063.585,1.063a5.283,5.283,0,0,0,.79.065ZM92.449,37.92c-.017-.443-.055-1.428.4-1.779.167-.132.823-.852.823-.852.1-.174.177-.185.177-.185.135-.013.311.3.311.3.467.9.935.793.935.793a.778.778,0,0,0-.107-.348q-.339-.658-.671-1.319-.074-.18-.131-.365c-.452-.7-.877-.167-.877-.167a17.435,17.435,0,0,1-1.2,1.579,1.075,1.075,0,0,0-.247.554c-.234,1.655.594,1.789.594,1.789Zm9.328-9.99a.723.723,0,0,0-.058-.745c-.313-.48-.606.044-.606.044-1.083,1.509-.283,3.767-.283,3.767a5.4,5.4,0,0,1,.947-3.066Z" transform="translate(-34.323 -21.116)" fill="#cc2729"/>
  </g>
  <path id="Path_371" data-name="Path 371" d="M0,125.6v27.674H5.584V130.886H8.215s4.107-.185,4.107,3.554a3.5,3.5,0,0,1-3.646,3.645H7.337v6.37l5.585,8.824h6.553l-7.8-11.315a7.169,7.169,0,0,0,6.415-7.523c0-6.968-4.846-8.835-11.307-8.835Zm81.643,12.944a7.262,7.262,0,0,0,2.445-5.507c0-3.607-2.619-6.858-8.2-6.858h-9.34v27.095h11.5s8.246-.094,8.246-7.545C86.3,141.407,84.623,139.751,81.643,138.548Zm-4.5,10.014H72.136V130.908h2.676s3.637-.273,3.637,2.9a2.625,2.625,0,0,1-2.893,2.893H73.889v4.756h3.252A3.4,3.4,0,0,1,80.71,145C80.71,148.121,77.143,148.563,77.143,148.563Zm39.714-23.5h5.215v28.218h-5.215V125.06Zm-8.976,0h5.284v28.218h-5.284V125.06ZM87.874,136.748h5.353v9.46s.186,3.186,3.185,3.186,2.954-3.186,2.954-3.186v-9.416h5.4v9.74s.693,7.615-8.215,7.615-8.676-6.692-8.676-7.892ZM52.383,125.06v12.8a10.367,10.367,0,0,0-5.54-1.984c-2.953,0-7.937,2.077-7.937,8.63s4.246,9.047,7.892,9.047a7.8,7.8,0,0,0,5.677-2.4v2.131h5.26V125.06H52.383Zm-4.062,23.871c-.277,0-3.739.047-3.739-4.2a4.036,4.036,0,0,1,3.784-4.385s4.247.138,4.247,4.292S48.6,148.931,48.321,148.931Zm-19.938-13.06c8.953,0,8.584,8.723,8.584,8.723v1.384H24.83a3.788,3.788,0,0,0,3.923,3.692,4.226,4.226,0,0,0,3.415-2.169l4.291,2.122a8.724,8.724,0,0,1-7.66,4.2c-9.323,0-9.508-7.753-9.508-8.722s.139-9.23,9.092-9.23Zm-3.462,6.922h6.647s-.277-3.137-3.277-3.137S24.922,142.793,24.922,142.793Z" transform="translate(0 -79.903)" fill="#cc2729"/>
</svg>
