<svg xmlns="http://www.w3.org/2000/svg" width="188.777" height="56.619" viewBox="0 0 188.777 56.619">
  <path id="spotify-1" d="M102.74,1369.15a28.31,28.31,0,1,0,28.309,28.309,28.31,28.31,0,0,0-28.309-28.309h0Zm12.983,40.83a1.764,1.764,0,0,1-2.426.587c-6.648-4.063-15.015-4.981-24.869-2.73a1.764,1.764,0,1,1-.785-3.439c10.784-2.466,20.034-1.4,27.5,3.155a1.764,1.764,0,0,1,.585,2.427h0Zm3.465-7.707a2.209,2.209,0,0,1-3.036.727c-7.608-4.677-19.209-6.031-28.209-3.3a2.207,2.207,0,1,1-1.283-4.223c10.281-3.119,23.062-1.608,31.8,3.762a2.206,2.206,0,0,1,.727,3.034h0Zm.3-8.027c-9.125-5.419-24.177-5.918-32.889-3.274a2.648,2.648,0,1,1-1.537-5.067c10-3.036,26.624-2.449,37.128,3.787a2.648,2.648,0,0,1-2.7,4.554h0Zm31.966,1.038c-4.888-1.166-5.758-1.984-5.758-3.7,0-1.624,1.529-2.717,3.8-2.717a11.111,11.111,0,0,1,6.681,2.538.32.32,0,0,0,.242.059.316.316,0,0,0,.211-.13l2.387-3.364a.321.321,0,0,0-.061-.435,14.441,14.441,0,0,0-9.387-3.252c-5.278,0-8.964,3.167-8.964,7.7,0,4.859,3.18,6.58,8.675,7.908,4.677,1.077,5.467,1.98,5.467,3.594,0,1.788-1.6,2.9-4.165,2.9-2.853,0-5.18-.961-7.784-3.215a.335.335,0,0,0-.235-.076.318.318,0,0,0-.22.113l-2.676,3.185a.317.317,0,0,0,.032.444,15.954,15.954,0,0,0,10.774,4.132c5.687,0,9.362-3.107,9.362-7.917.01-4.06-2.42-6.308-8.374-7.756Zm21.25-4.821a7.668,7.668,0,0,0-6.154,2.96v-2.239a.321.321,0,0,0-.32-.321H161.85a.32.32,0,0,0-.32.321v24.881a.32.32,0,0,0,.32.321h4.377a.321.321,0,0,0,.32-.321v-7.854A7.861,7.861,0,0,0,172.7,1411c4.58,0,9.217-3.526,9.217-10.266s-4.631-10.269-9.212-10.269Zm4.128,10.268c0,3.432-2.114,5.827-5.141,5.827-2.993,0-5.25-2.5-5.25-5.827s2.258-5.827,5.25-5.827,5.142,2.45,5.142,5.827Zm16.974-10.268a10.289,10.289,0,1,0,10.483,10.268,10.321,10.321,0,0,0-10.483-10.268Zm0,16.13a5.566,5.566,0,0,1-5.5-5.863c0-3.357,2.284-5.792,5.43-5.792a5.583,5.583,0,0,1,5.539,5.865,5.449,5.449,0,0,1-5.466,5.79Zm23.079-15.729h-4.816v-4.924a.32.32,0,0,0-.319-.321h-4.376a.321.321,0,0,0-.321.321v4.924h-2.1a.32.32,0,0,0-.319.321v3.761a.32.32,0,0,0,.319.321h2.1V1405c0,3.933,1.958,5.927,5.819,5.927a7.984,7.984,0,0,0,4.1-1.02.319.319,0,0,0,.162-.278v-3.582a.321.321,0,0,0-.464-.287,5.515,5.515,0,0,1-2.569.62c-1.4,0-2.031-.638-2.031-2.067v-9.045h4.816a.32.32,0,0,0,.319-.321v-3.761a.31.31,0,0,0-.314-.321Zm16.781.019v-.6c0-1.779.682-2.573,2.212-2.573a7.382,7.382,0,0,1,2.466.455.32.32,0,0,0,.421-.3v-3.688a.32.32,0,0,0-.227-.307,12.017,12.017,0,0,0-3.638-.523c-4.042,0-6.179,2.276-6.179,6.581v.926h-2.1a.322.322,0,0,0-.321.321v3.781a.322.322,0,0,0,.321.321h2.1v15.012a.32.32,0,0,0,.319.321h4.377a.321.321,0,0,0,.321-.321v-15.011h4.086l6.26,15.009c-.711,1.577-1.409,1.891-2.363,1.891a5.048,5.048,0,0,1-2.413-.685.329.329,0,0,0-.255-.024.324.324,0,0,0-.189.173l-1.483,3.254a.318.318,0,0,0,.138.414,9.215,9.215,0,0,0,4.674,1.2c3.232,0,5.018-1.505,6.593-5.555l7.593-19.62a.32.32,0,0,0-.3-.437H251.52a.322.322,0,0,0-.3.215l-4.667,13.332-5.112-13.341a.32.32,0,0,0-.3-.206h-7.477Zm-9.729-.019h-4.377a.321.321,0,0,0-.321.321v19.095a.321.321,0,0,0,.321.321h4.377a.322.322,0,0,0,.321-.321v-19.093a.32.32,0,0,0-.321-.321Zm-2.164-8.694a3.139,3.139,0,1,0,3.139,3.137,3.139,3.139,0,0,0-3.139-3.137ZM260.111,1397a3.088,3.088,0,1,1,3.1-3.1,3.068,3.068,0,0,1-3.1,3.1Zm.017-5.87a2.781,2.781,0,1,0,2.757,2.772,2.754,2.754,0,0,0-2.757-2.772Zm.683,3.089.871,1.22h-.735l-.784-1.119h-.674v1.119h-.615v-3.233h1.442c.751,0,1.245.384,1.245,1.031a.96.96,0,0,1-.747.982Zm-.521-1.459h-.8v1.023h.8c.4,0,.639-.2.639-.512,0-.333-.24-.511-.639-.511Z" transform="translate(-74.43 -1369.15)" fill="#b7adad"/>
</svg>
