<svg xmlns="http://www.w3.org/2000/svg" width="105.09" height="14.808" viewBox="0 0 105.09 14.808">
  <g id="Group_235" data-name="Group 235" transform="translate(-423 -4276.667)">
    <path id="star" d="M8.49,1.512,10.236,5.05a.834.834,0,0,0,.628.456l3.905.567A.834.834,0,0,1,15.232,7.5L12.406,10.25a.834.834,0,0,0-.24.738l.667,3.889a.834.834,0,0,1-1.21.879L8.131,13.921a.835.835,0,0,0-.776,0L3.862,15.757a.834.834,0,0,1-1.21-.879l.667-3.889a.834.834,0,0,0-.24-.738L.253,7.5A.834.834,0,0,1,.715,6.074l3.905-.567a.834.834,0,0,0,.628-.456L6.995,1.512A.834.834,0,0,1,8.49,1.512Z" transform="translate(422.999 4275.62)" fill="#ffab1a"/>
    <path id="star-2" data-name="star" d="M8.49,1.512,10.236,5.05a.834.834,0,0,0,.628.456l3.905.567A.834.834,0,0,1,15.232,7.5L12.406,10.25a.834.834,0,0,0-.24.738l.667,3.889a.834.834,0,0,1-1.21.879L8.131,13.921a.835.835,0,0,0-.776,0L3.862,15.757a.834.834,0,0,1-1.21-.879l.667-3.889a.834.834,0,0,0-.24-.738L.253,7.5A.834.834,0,0,1,.715,6.074l3.905-.567a.834.834,0,0,0,.628-.456L6.995,1.512A.834.834,0,0,1,8.49,1.512Z" transform="translate(445.401 4275.62)" fill="#ffab1a"/>
    <path id="star-3" data-name="star" d="M8.49,1.512,10.236,5.05a.834.834,0,0,0,.628.456l3.905.567A.834.834,0,0,1,15.232,7.5L12.406,10.25a.834.834,0,0,0-.24.738l.667,3.889a.834.834,0,0,1-1.21.879L8.131,13.921a.835.835,0,0,0-.776,0L3.862,15.757a.834.834,0,0,1-1.21-.879l.667-3.889a.834.834,0,0,0-.24-.738L.253,7.5A.834.834,0,0,1,.715,6.074l3.905-.567a.834.834,0,0,0,.628-.456L6.995,1.512A.834.834,0,0,1,8.49,1.512Z" transform="translate(490.204 4275.62)" fill="#ffab1a"/>
    <path id="star-4" data-name="star" d="M8.49,1.512,10.236,5.05a.834.834,0,0,0,.628.456l3.905.567A.834.834,0,0,1,15.232,7.5L12.406,10.25a.834.834,0,0,0-.24.738l.667,3.889a.834.834,0,0,1-1.21.879L8.131,13.921a.835.835,0,0,0-.776,0L3.862,15.757a.834.834,0,0,1-1.21-.879l.667-3.889a.834.834,0,0,0-.24-.738L.253,7.5A.834.834,0,0,1,.715,6.074l3.905-.567a.834.834,0,0,0,.628-.456L6.995,1.512A.834.834,0,0,1,8.49,1.512Z" transform="translate(467.802 4275.62)" fill="#ffab1a"/>
    <path id="star-5" data-name="star" d="M8.49,1.512,10.236,5.05a.834.834,0,0,0,.628.456l3.905.567A.834.834,0,0,1,15.232,7.5L12.406,10.25a.834.834,0,0,0-.24.738l.667,3.889a.834.834,0,0,1-1.21.879L8.131,13.921a.835.835,0,0,0-.776,0L3.862,15.757a.834.834,0,0,1-1.21-.879l.667-3.889a.834.834,0,0,0-.24-.738L.253,7.5A.834.834,0,0,1,.715,6.074l3.905-.567a.834.834,0,0,0,.628-.456L6.995,1.512A.834.834,0,0,1,8.49,1.512Z" transform="translate(512.606 4275.62)" fill="#ffab1a"/>
  </g>
</svg>
