<svg xmlns="http://www.w3.org/2000/svg" width="207.103" height="31.556" viewBox="0 0 207.103 31.556">
  <g id="Toshiba_logo" transform="translate(-17.194 -118.099)" opacity="0.63">
    <path id="a" d="M359.49,149.529l-9.23-30.46H337.549l-9.228,30.46h8.947l1.63-5.639h10.009l1.638,5.639h8.945Zm-18.655-12.413,3.045-10.523h.051l3.045,10.523Z" transform="translate(-135.193 -0.421)" fill="#b7adad"/>
    <path id="o" d="M85.067,118.1c-9.185,0-13.622,1.616-14.248,9.906-.153,1.972-.184,4-.184,5.868s.031,3.9.184,5.874c.626,8.288,5.064,9.906,14.248,9.906s13.624-1.618,14.254-9.906c.15-1.972.179-4,.179-5.874s-.029-3.9-.179-5.868C98.691,119.715,94.252,118.1,85.067,118.1Zm5.7,19.176c-.23,4.7-2.086,5.251-5.7,5.251s-5.465-.55-5.7-5.251c-.036-.732-.078-1.722-.078-3.4s.041-2.662.078-3.4c.232-4.7,2.088-5.249,5.7-5.249s5.467.548,5.7,5.249c.036.733.081,1.722.081,3.4S90.8,136.542,90.765,137.275Z" transform="translate(-23.222 0)" fill="#b7adad"/>
    <path id="t" d="M17.194,126.686H26.3v22.865h9.108V126.686h9.106v-7.593H17.194Z" transform="translate(0 -0.432)" fill="#b7adad"/>
    <rect id="i" width="8.644" height="30.46" transform="translate(148.305 118.647)" fill="#b7adad"/>
    <path id="h" d="M206.217,130.189h-9.986V119.068h-8.6v30.461h8.6V137.782h9.986v11.747h8.593V119.068h-8.593Z" transform="translate(-74.062 -0.421)" fill="#b7adad"/>
    <path id="b" d="M298.663,133.606h0c3.828-.978,4.95-3.266,4.95-6.571,0-6.694-4.211-7.968-10.2-7.968H277.894v30.46h16.288c7.5,0,10.022-3.231,10.022-8.2C304.2,137.863,303.411,134.807,298.663,133.606Zm-12.177-7.573h5.958a2.232,2.232,0,0,1,2.519,2.513A2.3,2.3,0,0,1,292.444,131h-5.958Zm5.958,16.527h-5.958v-5.544h5.958c2.409,0,2.91,1.054,2.91,2.77S294.413,142.56,292.444,142.56Z" transform="translate(-113.281 -0.421)" fill="#b7adad"/>
    <path id="s" d="M153.332,131.9c-2.144-1.264-8.158-1.457-11.209-1.652-2.222-.144-3.068-.962-3.068-2.919,0-2.566,2.443-2.661,4.556-2.661,1.744,0,2.955.159,3.8.912.329.334.732.84.748,2.634h8.173c0-3.518-.111-7.312-3.914-9.063-3.024-1.393-14.261-1.393-17.125,0-2.775,1.35-4.7,3.284-4.7,8.8,0,3.242.86,5.64,2.516,6.87,2.431,1.806,4.792,1.991,11.321,2.337,2.633.14,4.06.656,4.06,2.92,0,2.869-2.553,2.869-4.882,2.869-2.421,0-3.15-.2-3.966-.817-.718-.546-.907-1.533-.914-3.011h-8.194c0,4.2.081,7.638,4.041,9.365,3.539,1.55,14.425,1.55,17.683.111,2.825-1.248,4.853-2.912,4.853-8.585C157.117,136.08,156.338,133.675,153.332,131.9Z" transform="translate(-49.251 -0.002)" fill="#b7adad"/>
  </g>
</svg>
