<svg xmlns="http://www.w3.org/2000/svg" viewBox="0 0 422.2 128.25"><defs><style>.cls-1{fill:#fff;}</style></defs><title>Asset 2</title><g id="Layer_2" data-name="Layer 2"><g id="Layer_1-2" data-name="Layer 1"><path class="cls-1" d="M260.16,11.27a10.88,10.88,0,0,1-3.29,8,11.31,11.31,0,0,1-16,0,10.88,10.88,0,0,1-3.29-8,10.9,10.9,0,0,1,3.29-8,11.31,11.31,0,0,1,16,0A10.9,10.9,0,0,1,260.16,11.27Zm-3.29,29.28v84.92h-16V40.55Z"/><path class="cls-1" d="M314.92,128.25q-18.71,0-30.84-12.83T272,83q0-19.4,11.78-32.32t30.15-12.91q18.9,0,30.07,12.22t11.18,34.23L355,86H288.24q.35,12.48,8.31,20.1a26.61,26.61,0,0,0,19.07,7.63q15.24,0,23.91-15.25l14.21,6.93a42.24,42.24,0,0,1-15.85,16.81A43.92,43.92,0,0,1,314.92,128.25ZM289.45,72.79h48.7A21.19,21.19,0,0,0,331,58.14q-6.49-5.79-17.41-5.8A23.13,23.13,0,0,0,298,57.88,26.49,26.49,0,0,0,289.45,72.79Z"/><path class="cls-1" d="M385.63,125.47H369.69V40.55h15.25V54.42h.69q2.43-6.77,10-11.53t14.81-4.76a29.86,29.86,0,0,1,11.79,2.08l-4.85,15.42c-2-.8-5.09-1.21-9.36-1.21q-9,0-15.69,7.28a24.36,24.36,0,0,0-6.67,17Z"/><polygon class="cls-1" points="13.95 88.47 0 125.47 17.68 125.47 29.81 91.85 31.03 88.47 13.95 88.47"/><polygon class="cls-1" points="74.05 70.37 76.43 76.95 81.97 91.85 93.93 125.47 111.61 125.47 83.32 50.46 74.05 70.37"/><polygon class="cls-1" points="56.15 20.97 65.46 46.68 65.46 46.68 74.73 27.69 64.82 1.39 46.79 1.39 20.62 70.79 37.41 70.79 55.46 20.97 56.15 20.97"/><path class="cls-1" d="M218.36,38.13q-7.28,0-14.81,4.76t-10,11.53V40.55H177.64v47A28,28,0,0,1,171.23,106a19.94,19.94,0,0,1-15.95,7.71q-20.44,0-21-20.8V40.55H118.37V93.93q0,16.47,8.4,25.39t24,8.93a32.07,32.07,0,0,0,15.68-4.16,28.4,28.4,0,0,0,11.18-10.4h.69v11.78h15.25V78.68a24.36,24.36,0,0,1,6.67-17q6.67-7.28,15.69-7.28c4.27,0,7.39.41,9.36,1.21l4.85-15.42A29.86,29.86,0,0,0,218.36,38.13Z"/></g></g></svg>