<svg xmlns="http://www.w3.org/2000/svg" viewBox="0 0 287.07 59.97"><title>Asset 6</title><g id="Layer_2" data-name="Layer 2"><g id="Layer_1-2" data-name="Layer 1"><path d="M176.68,60H223c.89-3.84,3-12.21,3.65-15.24l-2.58-.62c-1.61,3.74-3.57,7.21-5.44,9.08-2.49,2.77-5.16,3.21-16.84,3.21-6.06,0-11.85-.09-14.61-.27,12.3-18,24.33-35.28,36.71-52.66l-.71-1.42h-36c-2.67,0-3.74.09-4.72-2h-2.32c-.18,3.92-1.25,11.67-1.69,16.31l2.67.09a32.31,32.31,0,0,1,3.39-7.49c1.87-2.76,3.2-3.3,11.13-3.3h17.56c-12.56,18.09-25,35.82-37.34,52.93Z"/><path d="M248.84,60v-2.5c-7.3-.89-8.55-1.6-6.59-7.39,1.25-3.66,2.58-7.13,4-11.14h19.25c1.87,5.61,3.65,10.07,4.81,13.54s.53,4.28-5.26,5V60h22v-2.5c-6.33-.71-7.13-1.42-10-9.18C271.48,32.88,265.33,16,259.71.8l-2.85.54L238.42,48.12c-3.12,8-4.55,8.64-10.16,9.35V60Zm7.31-47.5,8.11,22.81H247.6C250.27,28.25,253.3,20.14,256.15,12.47Z"/><path d="M133,57.47c-7.31-.89-8.55-1.6-6.59-7.39,1.25-3.66,2.58-7.13,4-11.14l1.33-3.66c2.68-7,5.71-15.14,8.56-22.81l8.11,22.81h-8.33l-1.34,3.66h10.91c1.87,5.61,3.66,10.07,4.82,13.54s.53,4.28-5.26,5V60h22v-2.5c-6.33-.71-7.13-1.42-10-9.18C155.65,32.88,149.51,16,143.89.8L141,1.34,122.6,48.12c-3.12,8-4.55,8.64-10.16,9.35V60H133Z"/><path d="M5.61,8.82c1.52-2.67,2.94-3.21,7.84-3.21h8.11V49c0,7-.71,7.93-9,8.46V60H38.49v-2.5C30,56.94,29.32,56,29.32,49V5.61h8.91c4.9,0,5.79.63,7.21,3A33.91,33.91,0,0,1,48.29,16L51,15.77c-.45-5.17-.8-11.58-.8-15.77H48C46.69,1.69,46,2.05,43.48,2.05H8.2c-2.5,0-3.48.09-4.81-2h-2C1.07,5,.53,10.6,0,16H2.67A40.65,40.65,0,0,1,5.61,8.82Z"/><path d="M58.27,57.47V60H82.06v-2.5C74.93,56.76,74,56.31,74,48.74v-14h3.12c4.54,0,5.7.53,7.48,3.39,2.86,4.54,6.06,10.15,9.36,14.7,3,4.26,5.79,6.24,9.89,7.13h7.41l.25-1.79a12.76,12.76,0,0,1-6.5-4.09,82.66,82.66,0,0,1-7-9.18c-2.67-4-6.5-10-8.11-12.74,6.6-2.86,11.5-7.67,11.5-15.33,0-5.43-2.41-9.45-6.06-11.76-3.39-2.23-7.76-3-14.26-3H58.27V4.54c7,.81,8,1.07,8,8.65V48.74C66.29,56.31,65.66,56.67,58.27,57.47ZM74,9.89c0-2.32.27-3.21,1.07-3.83.62-.54,2.14-.89,4.72-.89,6.86,0,13.19,3.47,13.19,13,0,4.81-1.43,8.37-4.9,11-2.23,1.87-5.17,2.58-9.8,2.58H74Z"/></g></g></svg>