<svg xmlns="http://www.w3.org/2000/svg" viewBox="0 0 514.96 107.92"><defs><style>.cls-1{fill:#fff;}</style></defs><title>Asset 1</title><g id="Layer_2" data-name="Layer 2"><g id="Layer_1-2" data-name="Layer 1"><path class="cls-1" d="M137.66,32.83V107H114.8V93.56a24.61,24.61,0,0,1-9.5,10.37,27.63,27.63,0,0,1-14.69,3.85q-12.75,0-20.26-8.5T62.84,75.89V32.83H85.43V73.1q0,7.58,3.92,11.76T99.92,89c4.6,0,8.24-1.46,10.89-4.38s4-7.09,4-12.49V32.83Z"/><path class="cls-1" d="M220.65,40.53q7.51,8.52,7.51,23.4V107H205.44V66.58q0-7.44-3.92-11.63a13.64,13.64,0,0,0-10.44-4.18q-6.9,0-11,4.38t-4.05,12.5V107H153.34V32.83h22.73V46.38a24.41,24.41,0,0,1,9.5-10.5A27.88,27.88,0,0,1,200.39,32Q213.14,32,220.65,40.53Z"/><path class="cls-1" d="M292.69,38.94a30.65,30.65,0,0,1,10.56,18.61H282a11.77,11.77,0,0,0-4.19-7.11,12.69,12.69,0,0,0-8.17-2.6,8.93,8.93,0,0,0-5.85,1.67,5.79,5.79,0,0,0-2,4.71q0,3.47,3.65,5.19a58.42,58.42,0,0,0,11.5,3.45,112.81,112.81,0,0,1,13.95,4.06,23,23,0,0,1,9.44,6.71q4,4.65,4,12.49a19.21,19.21,0,0,1-3.46,11.3,22.8,22.8,0,0,1-10,7.71,38.94,38.94,0,0,1-15.41,2.79q-15,0-24.06-6.65t-11-19h21.93a9.89,9.89,0,0,0,4.05,7.31,15.29,15.29,0,0,0,9.11,2.52,8.47,8.47,0,0,0,5.84-1.79,6.05,6.05,0,0,0,2-4.72,5.68,5.68,0,0,0-3.66-5.52,67.68,67.68,0,0,0-11.89-3.52,94.8,94.8,0,0,1-13.56-3.72A22.41,22.41,0,0,1,245,66.38q-3.85-4.44-3.85-12.16a19.83,19.83,0,0,1,7.57-16.14q7.58-6.18,21.4-6.18Q284.25,31.9,292.69,38.94Z"/><path class="cls-1" d="M422.66,40.53q7.51,8.52,7.51,23.4V107H407.45V66.58q0-7.44-3.93-11.63a13.61,13.61,0,0,0-10.43-4.18q-6.91,0-11,4.38t-4.06,12.5V107H355.35V32.83h22.72V46.38a24.5,24.5,0,0,1,9.51-10.5A27.85,27.85,0,0,1,402.4,32Q415.15,32,422.66,40.53Z"/><path class="cls-1" d="M502.74,39.8q9.69,7.92,12.22,21.73H490.91a12.66,12.66,0,0,0-4.39-7.44,13,13,0,0,0-8.37-2.66,12.14,12.14,0,0,0-9.83,4.72q-3.87,4.73-3.86,13.76t3.86,13.75a12.11,12.11,0,0,0,9.83,4.72,12.91,12.91,0,0,0,8.37-2.66,12.66,12.66,0,0,0,4.39-7.44H515Q512.44,92.11,502.74,100t-24.06,7.91a39.86,39.86,0,0,1-19.34-4.59,32.8,32.8,0,0,1-13.22-13.22,41,41,0,0,1-4.78-20.2q0-11.7,4.71-20.27a32.37,32.37,0,0,1,13.23-13.16,40.2,40.2,0,0,1,19.4-4.58Q493,31.9,502.74,39.8Z"/><path class="cls-1" d="M52.13,24.13H0V13.89A10.7,10.7,0,0,1,10.7,3.19H62.84V13.43A10.71,10.71,0,0,1,52.13,24.13Zm-20.94,21H0V55.32A10.71,10.71,0,0,0,10.7,66H41.89V55.78A10.7,10.7,0,0,0,31.19,45.08ZM10.24,87H0V97.21a10.71,10.71,0,0,0,10.7,10.71H21V97.67A10.71,10.71,0,0,0,10.24,87Z"/><path class="cls-1" d="M328.37,23.79q6.12,0,9.84-3.39A11,11,0,0,0,341.93,12l-12.77-.07V0c-.26,0-.52,0-.79,0a14,14,0,0,0-9.83,3.39A11.1,11.1,0,0,0,314.82,12a11,11,0,0,0,3.72,8.44A14,14,0,0,0,328.37,23.79Z"/><rect class="cls-1" x="316.94" y="32.83" width="22.73" height="74.16"/></g></g></svg>