<svg id="Layer_1" data-name="Layer 1" xmlns="http://www.w3.org/2000/svg" viewBox="0 0 302 302">
  <title>logo</title>
  <g>
    <path d="M57.72,66.44c-.76-.67-1.72-1.17-2.75,0l-1,1.13,3.09,2.71,1-1.16C59.1,68,58.49,67.11,57.72,66.44Z" transform="translate(-5.19 -4)"/>
    <path d="M131,281.23c-2.05-.41-3,1.27-3.45,3.76s-.3,4.37,1.75,4.78,2.92-1.25,3.42-3.74S133,281.64,131,281.23Z" transform="translate(-5.19 -4)"/>
    <path d="M74.27,50.74a1.65,1.65,0,0,0-2.62-.34l-1.14.92,2.39,3,1.17-.94A1.61,1.61,0,0,0,74.27,50.74Z" transform="translate(-5.19 -4)"/>
    <path d="M142.09,106.81c5.65,0,7.13-4.68,7.13-11s-1.48-11-7.13-11S135,89.48,135,95.8,136.52,106.81,142.09,106.81Z" transform="translate(-5.19 -4)"/>
    <path d="M170.89,285.13c-.1-1-.54-2.08-2.21-1.92l-1.62.16.4,4.19,1.66-.16C170.78,287.24,171,286.2,170.89,285.13Z" transform="translate(-5.19 -4)"/>
    <path d="M221.27,39.46a1.65,1.65,0,0,0-.67-2.55l-1.29-.71-1.83,3.34,1.32.72A1.6,1.6,0,0,0,221.27,39.46Z" transform="translate(-5.19 -4)"/>
    <polygon points="114.66 27.45 111.53 22.47 111.68 28.37 114.66 27.45"/>
    <path d="M237,118.39c-5.57,0-7.13,4.68-7.13,11s1.56,11,7.13,11,7.13-4.69,7.13-11S242.67,118.39,237,118.39Z" transform="translate(-5.19 -4)"/>
    <path d="M96.09,43.39c1.68-.9,1.32-2.55.23-4.56s-2.28-3.25-4-2.35-1.31,2.58-.22,4.6S94.44,44.29,96.09,43.39Z" transform="translate(-5.19 -4)"/>
    <path d="M156.19,4a151,151,0,1,0,151,151A151,151,0,0,0,156.19,4Zm115,111.9h2.91v27h-3.42l-12.61-22.65v22.65H255.2v-27h3.55l12.48,22.4ZM259.29,71.14c1.42-1.14,3.12-1.29,4.65.69s1.08,3.59-.65,4.92l-1-1.27a1.73,1.73,0,0,0,.42-2.76c-.73-.94-1.52-1.1-2.39-.37-1.7,1.4,2.77,4.69-.26,7-1.13.87-3,1.42-4.67-.76s-1.21-3.85.67-5.29l1,1.28a1.93,1.93,0,0,0-.44,3c.85,1.1,1.66,1.11,2.36.57C261.13,76.57,256.41,73.4,259.29,71.14Zm-1-6.07-1.11,1-2.94-3.17-2.18,2,2.66,2.88-1.09,1L250.94,66l-2.34,2.16,2.93,3.18-1.11,1-4-4.36,7.84-7.24Zm-11.2,64.37c0,7.17-1.86,13.71-10,13.71s-10-6.54-10-13.75,1.9-13.75,10-13.75S247.06,122.18,247.06,129.44Zm.55-75.27c2,1.82,1.57,3.94,0,5.66l-1.22-1.11c1-1.27,1.18-2.52.18-3.43-1.31-1.19-2.76-.28-4.29,1.41s-2.3,3.23-1,4.42c1,.93,2.3.67,3.42-.55L246,61.68c-1.63,1.8-3.63,2.4-5.66.56-2.37-2.15-1.1-4.54.8-6.63S245.24,52,247.61,54.17Zm-7.16-5.92-6.57,8.41-1.28-1,6.57-8.41Zm-12.06-8.59,1.41,1-2.92,8.78,7-6,1.42,1-8.62,7.06-1.6-1.06Zm-7.13-4.1c2.85,1.56,2.05,3.58,1.44,4.69-1.11,2-2.63,2.13-4.21,1.27l.95,5.21-1.8-1L217,40.5l-2.05,3.75-1.42-.78,5.12-9.36ZM207,118.64V115.9H222.8v2.74h-6.49v24.25h-2.78V118.64Zm1.3-89.32,5.42,2.38-.61,1.39-3.95-1.74L208,34.07l3.59,1.57-.6,1.36-3.59-1.57-1.28,2.91,4,1.74-.61,1.39L204,39.09ZM194,31.59l1.53.52a1.93,1.93,0,0,0,1.33,2.79c1.31.44,2,0,2.27-.84.87-2.57-4.81-2.59-3.67-6.07.55-1.74,1.88-2.8,4.24-2s2.9,2.38,2.2,4.45l-1.52-.51a1.72,1.72,0,0,0-1.19-2.53c-1.12-.38-1.87-.07-2.19,1-.64,2.11,4.91,2.36,3.68,6-.45,1.34-1.7,2.84-4.3,2S193.2,33.84,194,31.59Zm-7.54,50.72H190l12.48,22.39V82.31h2.91v27h-3.42L189.33,86.65V109.3h-2.91Zm5.76,33.34c6.62,0,9.36,4.38,9.36,9.49h-2.91c-.12-4.14-2.11-6.75-6.45-6.75-5.4,0-6.83,4.68-6.83,11s1.68,11,6.83,11c4.47,0,6.54-3.46,6.62-9.5h-7.59v-2.78h10.46v14.76h-1.86l-.55-4.93c-1.51,3.46-3.58,5.19-7.25,5.19-7.42,0-9.53-6.54-9.53-13.75S184.29,115.65,192.18,115.65ZM178.83,20.86l5.69,1.06-.28,1.49-4.12-.77-.54,2.92,3.82.72-.28,1.46L179.3,27l-.86,4.62-1.58-.29Zm-11.25-1.41,5.89.61-.16,1.51L169,21.13l-.31,2.95,3.9.4L172.46,26l-3.9-.4-.33,3.16,4.29.45-.15,1.51-5.89-.61Zm7.2,74.71V82.31h2.82v27h-2.82V96.86H163.05V109.3h-2.86v-27h2.86V94.16Zm-.36,21.74v27H171l-12.61-22.65v22.65h-2.91v-27H159l12.49,22.4V115.9ZM154.69,19l1.62,0-.07,4.49,3.83.06.08-4.49,1.61,0-.17,10.67-1.62,0,.08-4.7L156.21,25l-.07,4.7-1.62,0Zm-9.34.36c2.71-.21,4,1.56,4.13,3.87l-1.64.13c-.21-1.62-1-2.59-2.37-2.48-1.76.14-2.1,1.82-1.92,4.09s.78,3.89,2.54,3.75c1.38-.11,2.06-1.22,1.94-2.87l1.65-.13c.19,2.43-.75,4.29-3.47,4.51-3.19.25-4.06-2.32-4.29-5.13S142.16,19.58,145.35,19.32Zm-3.26,62.73c8.18,0,10,6.54,10,13.8s-1.86,13.7-10,13.7-10-6.53-10-13.75S134,82.05,142.09,82.05Zm4.57,33.85v27H143.8v-27Zm-9.87,24.29v2.7H125.15v-27H128v24.29ZM126.59,22.25l2,9,3.08-.67.31,1.45-4.65,1L125,22.59Zm-9.31,2.41,6.08,9.3-1.63.49-1.14-1.83-3.66,1.13,0,2.16-1.6.49-.13-11.12ZM115,106.6c5.18.72,6.24-.93,6.24-5.19V82.31h2.83l0,18.94c0,6.15-1.39,9-9.11,8Zm3.14,33.59v2.7H106.51v-27h2.86v24.29ZM102.23,30.13,109.05,36,106,28.57l1.48-.62,4.1,9.85-1.78.75-6.91-5.88,3.1,7.46-1.49.62-4.1-9.85Zm-10.59,5c2.94-1.59,4.78.41,6.12,2.91s2,5.1-.94,6.68S92,44.33,90.7,41.85,88.73,36.72,91.64,35.15Zm6.09,92.6v2.7H87.06v9.7H98.74v2.74H84.19v-27H98.74v2.74H87.06v9.11ZM80.43,41.91c2-1.34,3.65-.85,4.87,1L84,43.77a1.73,1.73,0,0,0-2.73-.6c-1,.66-1.2,1.45-.52,2.36,1.28,1.79,4.85-2.46,7,.73.79,1.17,1.22,3.07-1.06,4.61s-3.92.94-5.24-1l1.34-.9a1.94,1.94,0,0,0,3,.64c1.15-.77,1.21-1.58.72-2.31-1.52-2.26-5,2.24-7-.79C78.39,45,78.36,43.3,80.43,41.91Zm-9.77,7.36c2.52-2,4.08-.54,4.88.45,1.46,1.8,1,3.24-.43,4.37L80.3,55.2l-1.6,1.29-5.11-1.36,2.69,3.32-1.26,1-6.71-8.29Zm-6.42,5.49,1.05,1.09-3.11,3L64.23,61l2.83-2.72,1,1.07-2.83,2.72,2.21,2.29,3.11-3,1,1.09-4.27,4.11L60,58.86ZM53.81,65.49c2.17-2.48,4-1.2,5-.29s2.57,2.38.38,4.88l-1,1.16,2.71,2.38-1.07,1.21-8-7ZM49.35,115.9l5.35,22.94,5.57-22.94h3.29l5.61,22.94,5.32-22.94H77.4l-6.54,27H67.49l-5.66-22.77-5.52,22.77H53l-6.63-27ZM84.52,216.35c0-12.86,3-24.88,17.66-24.88,12.4,0,17.43,8.52,17.43,19.1h-7.54c-.38-7.46-3.73-12.18-9.89-12.18-8.07,0-10.2,7.54-10.2,18s2.13,18,10.2,18c6.31,0,9.82-4.8,9.89-12.33h7.54c0,11.11-5,19.25-17.43,19.25C87.56,241.24,84.52,229.22,84.52,216.35Zm33.92,72.54-1.69-.54,2.72-8.39L114,287.47l-1.69-.55v-9.27L109.64,286l-1.69-.55,3.66-11.25,2.4.78-.07,9.89,5.74-8.05,2.41.78Zm16-2.5c-.6,3-1.9,5.77-5.52,5.05s-3.8-3.74-3.2-6.8,2-5.78,5.55-5.06S135.07,283.3,134.45,286.39ZM148,293.8l-2.14-.19-3.76-9.33-.79,8.93-1.78-.16,1-11.78,2.23.19,3.69,9.24.78-8.84,1.77.15Zm-14.4-74.55v21.46h-7.38V192h7.38v20.47h17.51V192h7.38v48.71h-7.38V219.25ZM158.12,294l-1.76,0-.16-10.14-2.63,0,0-1.68,7-.11,0,1.68-2.63,0Zm13.36-.81-3.9-4.37.46,4.71-1.79.17-1.14-11.78,3.33-.32c3.59-.35,4.12,2,4.25,3.39.25,2.56-1.08,3.6-3.07,3.79l4.12,4.19Zm20.36-80.68v6.78H174v14.53h19.72v6.93h-27V192h27v6.92H174v13.55Zm-12.27,79.58-2.23-11.62,6.44-1.24.32,1.66-4.7.9L180,285l4.26-.82.31,1.62-4.26.82.67,3.46,4.7-.9.32,1.65ZM198,287.6l-1.24-2.05-4.08,1.2,0,2.4-1.77.52V277.33l2.26-.66,6.61,10.4Zm6.9-2.39-4.33-11,1.67-.65L206,283l3.25-1.28.61,1.53Zm21.62-86.29H207.44v13.55h17.74v6.78H207.44v21.46h-7.31V192h26.42ZM40.8,168v-2H278.43v2Z" transform="translate(-5.19 -4)"/>
    <polygon points="187.48 281.22 190.79 280.25 187.39 274.67 187.48 281.22"/>
  </g>
</svg>
